<mxfile host="Electron" agent="Mozilla/5.0 (Windows NT 10.0; Win64; x64) AppleWebKit/537.36 (KHTML, like Gecko) draw.io/26.0.9 Chrome/128.0.6613.186 Electron/32.2.5 Safari/537.36" version="26.0.9">
  <diagram name="Page-1" id="Pfw512TBdEc4AL0B_62l">
    <mxGraphModel dx="-193" dy="563" grid="1" gridSize="10" guides="1" tooltips="1" connect="1" arrows="1" fold="1" page="1" pageScale="1" pageWidth="827" pageHeight="1169" math="0" shadow="0">
      <root>
        <mxCell id="0" />
        <mxCell id="1" parent="0" />
        <mxCell id="2" value="" style="rounded=0;whiteSpace=wrap;html=1;strokeColor=default;fillColor=default;movable=1;resizable=1;rotatable=1;deletable=1;editable=1;locked=0;connectable=1;" parent="1" vertex="1">
          <mxGeometry x="900" y="150" width="630" height="610" as="geometry" />
        </mxCell>
        <mxCell id="IJmXjw1ShNEismxhBZoX-8" style="edgeStyle=orthogonalEdgeStyle;rounded=0;orthogonalLoop=1;jettySize=auto;html=1;exitX=0.5;exitY=1;exitDx=0;exitDy=0;entryX=0.5;entryY=0;entryDx=0;entryDy=0;" parent="1" source="IJmXjw1ShNEismxhBZoX-3" target="IJmXjw1ShNEismxhBZoX-4" edge="1">
          <mxGeometry relative="1" as="geometry" />
        </mxCell>
        <mxCell id="IJmXjw1ShNEismxhBZoX-3" value="&lt;b&gt;&lt;font style=&quot;font-size: 24px;&quot;&gt;Start&lt;/font&gt;&lt;/b&gt;" style="rounded=1;whiteSpace=wrap;html=1;arcSize=50;strokeWidth=2;" parent="1" vertex="1">
          <mxGeometry x="978.96" y="190" width="103.25" height="50" as="geometry" />
        </mxCell>
        <mxCell id="Rjor2WSi_NKT8hvH7R_Y-3" style="edgeStyle=orthogonalEdgeStyle;rounded=0;orthogonalLoop=1;jettySize=auto;html=1;exitX=0.5;exitY=1;exitDx=0;exitDy=0;entryX=0.5;entryY=0;entryDx=0;entryDy=0;" parent="1" source="IJmXjw1ShNEismxhBZoX-4" target="Rjor2WSi_NKT8hvH7R_Y-2" edge="1">
          <mxGeometry relative="1" as="geometry" />
        </mxCell>
        <mxCell id="IJmXjw1ShNEismxhBZoX-4" value="&lt;b&gt;&lt;font style=&quot;font-size: 24px;&quot;&gt;&lt;font style=&quot;&quot;&gt;En&lt;/font&gt;ter n&lt;/font&gt;&lt;/b&gt;" style="shape=parallelogram;perimeter=parallelogramPerimeter;whiteSpace=wrap;html=1;fixedSize=1;align=center;strokeWidth=2;" parent="1" vertex="1">
          <mxGeometry x="968.71" y="280" width="123.75" height="40" as="geometry" />
        </mxCell>
        <mxCell id="IJmXjw1ShNEismxhBZoX-10" style="edgeStyle=orthogonalEdgeStyle;rounded=0;orthogonalLoop=1;jettySize=auto;html=1;exitX=0.5;exitY=1;exitDx=0;exitDy=0;entryX=0.5;entryY=0;entryDx=0;entryDy=0;" parent="1" source="lcP_tkz22S2U3AyWu_y0-2" target="IJmXjw1ShNEismxhBZoX-6" edge="1">
          <mxGeometry relative="1" as="geometry">
            <mxPoint x="1025.74" y="570" as="sourcePoint" />
            <mxPoint x="1026.24" y="620" as="targetPoint" />
          </mxGeometry>
        </mxCell>
        <mxCell id="lcP_tkz22S2U3AyWu_y0-7" value="&lt;span style=&quot;font-size: 12px;&quot;&gt;&lt;b&gt;N&lt;/b&gt;&lt;/span&gt;" style="edgeLabel;html=1;align=center;verticalAlign=middle;resizable=0;points=[];" parent="IJmXjw1ShNEismxhBZoX-10" vertex="1" connectable="0">
          <mxGeometry x="-0.3035" relative="1" as="geometry">
            <mxPoint y="6" as="offset" />
          </mxGeometry>
        </mxCell>
        <mxCell id="IJmXjw1ShNEismxhBZoX-11" style="edgeStyle=orthogonalEdgeStyle;rounded=0;orthogonalLoop=1;jettySize=auto;html=1;exitX=0.5;exitY=1;exitDx=0;exitDy=0;entryX=0.5;entryY=0;entryDx=0;entryDy=0;" parent="1" source="IJmXjw1ShNEismxhBZoX-6" target="IJmXjw1ShNEismxhBZoX-7" edge="1">
          <mxGeometry relative="1" as="geometry" />
        </mxCell>
        <mxCell id="IJmXjw1ShNEismxhBZoX-6" value="&lt;span style=&quot;font-size: 24px;&quot;&gt;&lt;b&gt;Prime&lt;/b&gt;&lt;/span&gt;" style="shape=parallelogram;perimeter=parallelogramPerimeter;whiteSpace=wrap;html=1;fixedSize=1;align=center;strokeWidth=2;" parent="1" vertex="1">
          <mxGeometry x="944.7" y="570" width="171.76" height="50" as="geometry" />
        </mxCell>
        <mxCell id="IJmXjw1ShNEismxhBZoX-7" value="&lt;span style=&quot;font-size: 24px;&quot;&gt;&lt;b&gt;End&lt;/b&gt;&lt;/span&gt;" style="rounded=1;whiteSpace=wrap;html=1;arcSize=50;strokeWidth=2;" parent="1" vertex="1">
          <mxGeometry x="990.59" y="660" width="80" height="50" as="geometry" />
        </mxCell>
        <mxCell id="lcP_tkz22S2U3AyWu_y0-4" style="edgeStyle=orthogonalEdgeStyle;rounded=0;orthogonalLoop=1;jettySize=auto;html=1;exitX=1;exitY=0.5;exitDx=0;exitDy=0;entryX=0;entryY=0.5;entryDx=0;entryDy=0;" parent="1" source="lcP_tkz22S2U3AyWu_y0-2" target="mJFjYLEd6i3kxsFjLQBA-2" edge="1">
          <mxGeometry relative="1" as="geometry" />
        </mxCell>
        <mxCell id="lcP_tkz22S2U3AyWu_y0-5" value="&lt;b&gt;&lt;font style=&quot;font-size: 12px;&quot;&gt;Y&lt;/font&gt;&lt;/b&gt;" style="edgeLabel;html=1;align=center;verticalAlign=middle;resizable=0;points=[];" parent="lcP_tkz22S2U3AyWu_y0-4" vertex="1" connectable="0">
          <mxGeometry x="-0.2768" y="1" relative="1" as="geometry">
            <mxPoint x="3" y="1" as="offset" />
          </mxGeometry>
        </mxCell>
        <mxCell id="lcP_tkz22S2U3AyWu_y0-2" value="&lt;b&gt;&lt;font style=&quot;font-size: 24px;&quot;&gt;i &amp;lt;= n-1?&lt;/font&gt;&lt;/b&gt;" style="rhombus;whiteSpace=wrap;html=1;strokeWidth=2;align=center;" parent="1" vertex="1">
          <mxGeometry x="956.7400000000001" y="450" width="147.68" height="70" as="geometry" />
        </mxCell>
        <mxCell id="Rjor2WSi_NKT8hvH7R_Y-6" style="edgeStyle=orthogonalEdgeStyle;rounded=0;orthogonalLoop=1;jettySize=auto;html=1;exitX=1;exitY=0.5;exitDx=0;exitDy=0;entryX=0;entryY=0.5;entryDx=0;entryDy=0;" parent="1" source="mJFjYLEd6i3kxsFjLQBA-2" target="Rjor2WSi_NKT8hvH7R_Y-5" edge="1">
          <mxGeometry relative="1" as="geometry" />
        </mxCell>
        <mxCell id="mJFjYLEd6i3kxsFjLQBA-7" value="&lt;b&gt;N&lt;/b&gt;" style="edgeLabel;html=1;align=center;verticalAlign=middle;resizable=0;points=[];" vertex="1" connectable="0" parent="Rjor2WSi_NKT8hvH7R_Y-6">
          <mxGeometry x="-0.1551" y="-1" relative="1" as="geometry">
            <mxPoint as="offset" />
          </mxGeometry>
        </mxCell>
        <mxCell id="Rjor2WSi_NKT8hvH7R_Y-4" style="edgeStyle=orthogonalEdgeStyle;rounded=0;orthogonalLoop=1;jettySize=auto;html=1;entryX=0.5;entryY=0;entryDx=0;entryDy=0;" parent="1" source="Rjor2WSi_NKT8hvH7R_Y-2" target="lcP_tkz22S2U3AyWu_y0-2" edge="1">
          <mxGeometry relative="1" as="geometry" />
        </mxCell>
        <mxCell id="Rjor2WSi_NKT8hvH7R_Y-2" value="&lt;span style=&quot;font-size: 24px;&quot;&gt;&lt;b&gt;i = 2&lt;/b&gt;&lt;/span&gt;" style="shape=label;whiteSpace=wrap;html=1;fixedSize=1;align=center;strokeWidth=2;rounded=0;" parent="1" vertex="1">
          <mxGeometry x="988.13" y="360" width="84.9" height="50" as="geometry" />
        </mxCell>
        <mxCell id="Rjor2WSi_NKT8hvH7R_Y-7" style="edgeStyle=orthogonalEdgeStyle;rounded=0;orthogonalLoop=1;jettySize=auto;html=1;exitX=1;exitY=0.5;exitDx=0;exitDy=0;" parent="1" source="Rjor2WSi_NKT8hvH7R_Y-5" edge="1">
          <mxGeometry relative="1" as="geometry">
            <mxPoint x="1030" y="430" as="targetPoint" />
            <Array as="points">
              <mxPoint x="1490" y="485" />
              <mxPoint x="1490" y="430" />
            </Array>
          </mxGeometry>
        </mxCell>
        <mxCell id="Rjor2WSi_NKT8hvH7R_Y-5" value="&lt;span style=&quot;font-size: 24px;&quot;&gt;&lt;b&gt;i += 1&lt;/b&gt;&lt;/span&gt;" style="shape=label;whiteSpace=wrap;html=1;fixedSize=1;align=center;strokeWidth=2;rounded=0;" parent="1" vertex="1">
          <mxGeometry x="1380" y="460" width="90" height="50" as="geometry" />
        </mxCell>
        <mxCell id="mJFjYLEd6i3kxsFjLQBA-4" style="edgeStyle=orthogonalEdgeStyle;rounded=0;orthogonalLoop=1;jettySize=auto;html=1;exitX=0.5;exitY=1;exitDx=0;exitDy=0;entryX=0.5;entryY=0;entryDx=0;entryDy=0;" edge="1" parent="1" source="mJFjYLEd6i3kxsFjLQBA-2" target="mJFjYLEd6i3kxsFjLQBA-3">
          <mxGeometry relative="1" as="geometry" />
        </mxCell>
        <mxCell id="mJFjYLEd6i3kxsFjLQBA-5" value="&lt;b&gt;Y&lt;/b&gt;" style="edgeLabel;html=1;align=center;verticalAlign=middle;resizable=0;points=[];" vertex="1" connectable="0" parent="mJFjYLEd6i3kxsFjLQBA-4">
          <mxGeometry x="-0.2632" y="-2" relative="1" as="geometry">
            <mxPoint x="2" y="5" as="offset" />
          </mxGeometry>
        </mxCell>
        <mxCell id="mJFjYLEd6i3kxsFjLQBA-2" value="&lt;b&gt;&lt;font style=&quot;font-size: 24px;&quot;&gt;n%i == 0?&lt;/font&gt;&lt;/b&gt;" style="rhombus;whiteSpace=wrap;html=1;strokeWidth=2;align=center;" vertex="1" parent="1">
          <mxGeometry x="1160" y="450" width="160" height="70" as="geometry" />
        </mxCell>
        <mxCell id="mJFjYLEd6i3kxsFjLQBA-6" style="edgeStyle=orthogonalEdgeStyle;rounded=0;orthogonalLoop=1;jettySize=auto;html=1;exitX=0.5;exitY=1;exitDx=0;exitDy=0;" edge="1" parent="1" source="mJFjYLEd6i3kxsFjLQBA-3">
          <mxGeometry relative="1" as="geometry">
            <mxPoint x="1030" y="640" as="targetPoint" />
            <Array as="points">
              <mxPoint x="1240" y="640" />
              <mxPoint x="1030" y="640" />
            </Array>
          </mxGeometry>
        </mxCell>
        <mxCell id="mJFjYLEd6i3kxsFjLQBA-3" value="&lt;span style=&quot;font-size: 24px;&quot;&gt;&lt;b&gt;non-Prime&lt;/b&gt;&lt;/span&gt;" style="shape=parallelogram;perimeter=parallelogramPerimeter;whiteSpace=wrap;html=1;fixedSize=1;align=center;strokeWidth=2;" vertex="1" parent="1">
          <mxGeometry x="1154.12" y="570" width="171.76" height="50" as="geometry" />
        </mxCell>
      </root>
    </mxGraphModel>
  </diagram>
</mxfile>
